<svg width="1148" height="196" viewBox="0 0 1148 196" fill="none" xmlns="http://www.w3.org/2000/svg">
<path fill-rule="evenodd" clip-rule="evenodd" d="M222 0L237.5 37.0904H86L46 161H202L166.849 196H31L0 178L43 37.0904L79.5 0H222ZM207.5 195L259.5 36.5L295.5 59.5L251 195H207.5ZM259.5 36.5L310 0H427L450.5 23.5L429 103.5L408.5 121.5L283.5 120.5L310 90H396L412.5 36.5H259.5ZM337 124.5L377 194.5H334.5L295.5 121L337 124.5ZM464.504 36.0028L646.5 37L609 148.5L642.5 166.5L690 21.5L660 0H515.5L464 36L464.499 36.0027L420.5 167L438 195.5H611L642.5 167H464.5L500.5 59L464.504 36.0028ZM660 195L725 0.5L749 60.5L703.5 195H660ZM872 0L807 194.5H850.5L896 60L872 0ZM737 195L779.5 81L803 114.5L774 195H737ZM742 172H717L707 196H733L742 172ZM787 172H812L803 196H777L787 172ZM1104.5 37L922.504 36.0028L958.5 59L910.5 194H866L922.499 36.0027L922 36L973.5 0H1118L1148 21.5L1100.5 168H1100L1081.5 194.5H910.5L920 168H1059L1104.5 37Z" fill="#FCFC03"/>
</svg>
